<svg width="64" xmlns="http://www.w3.org/2000/svg" height="64">
  <path fill="#1D1D1B" d="M63.875 31.203c-.102-.246-.248-.467-.435-.652l-6.837-6.838c-.783-.783-2.051-.783-2.834 0-.781.781-.781 2.05 0 2.832l3.42 3.42-23.16-.001.002-23.155 3.568 3.57c.393.392.904.588 1.418.588.512 0 1.025-.196 1.416-.588.783-.781.783-2.051 0-2.834L33.445.555c-.186-.186-.406-.332-.652-.434-.49-.203-1.041-.203-1.531 0-.244.101-.463.246-.646.429 0 0-.002.002-.004.003l-6.844 6.84c-.781.783-.781 2.051 0 2.834.393.391.904.587 1.418.587.512 0 1.025-.196 1.416-.587l3.422-3.42-.002 23.157-23.15-.001 3.417-3.418c.781-.782.781-2.051 0-2.832-.783-.783-2.051-.783-2.834 0l-6.838 6.84c-.393.391-.588.903-.588 1.416s.195 1.025.588 1.417l6.988 6.989c.392.393.904.588 1.417.588s1.025-.195 1.417-.588c.782-.783.782-2.051 0-2.833l-3.571-3.571 23.153.001-.001 23.153-3.418-3.417c-.783-.78-2.051-.782-2.834.001-.781.783-.781 2.052 0 2.834l6.844 6.839c.391.392.904.587 1.416.587.513 0 1.025-.195 1.416-.587l6.99-6.991c.783-.783.783-2.053 0-2.834-.783-.783-2.051-.783-2.834 0l-3.572 3.574.002-23.159 23.16.001-3.57 3.569c-.781.782-.781 2.05 0 2.833.393.393.904.588 1.418.588.512 0 1.025-.195 1.416-.588l6.989-6.989c.004-.005.006-.012.012-.017.177-.182.321-.396.421-.633.102-.246.154-.506.154-.768-.001-.259-.053-.52-.155-.765z"/>
</svg>
